<svg xmlns="http://www.w3.org/2000/svg"  viewBox="0 0 64 64" width="100px" height="100px" baseProfile="basic"><linearGradient id="UkeNuOZrbfN1H1m9g_YzDa" x1="32" x2="32" y1="2.453" y2="30" gradientUnits="userSpaceOnUse"><stop offset="0" stop-color="#6dc7ff"/><stop offset="1" stop-color="#e6abff"/></linearGradient><path fill="url(#UkeNuOZrbfN1H1m9g_YzDa)" d="M17,8l9,2l1,3H17V9V8z M32,12l2,1h11c0,0-0.918-3.138-2.918-4.138l3.776-3.746L43.63,2.453 l-6.623,6.59l-2.054,0.755L32,12z M17,25l9-3l2-2H17v3.998V25z M32.695,23.304L36,24l8,6l2-2l-4-4c2.195-1.37,3-4,3-4H34l-2,1 L32.695,23.304z M47,16.5L45,15H19l-2,1.5l2,1.5h26L47,16.5z"/><linearGradient id="UkeNuOZrbfN1H1m9g_YzDb" x1="32.006" x2="32.006" y1=".948" y2="62.972" gradientUnits="userSpaceOnUse"><stop offset="0" stop-color="#3060ff"/><stop offset="1" stop-color="#ce00ff"/></linearGradient><path fill="url(#UkeNuOZrbfN1H1m9g_YzDb)" d="M44.719,1.255 c-0.199-0.208-0.479-0.326-0.766-0.305c-0.287,0.014-0.555,0.149-0.734,0.374c-3.358,4.199-7.495,6.98-8.499,7.623l-2.722,0.005 c-1.499-2.003-1.527-2.003-2.003-2.003H27c-0.379,0-0.725,0.214-0.895,0.553l-0.65,1.302l-8.238-1.831 c-0.329-0.071-0.671,0.025-0.913,0.259l-2.992,2.904c-0.194,0.188-0.304,0.447-0.304,0.718v11.191c0,0.271,0.109,0.529,0.304,0.718 l2.992,2.904c0.268,0.26,0.659,0.347,1.011,0.231l6.453-2.139c0,0,0.26,1.512,2.232,3.189c0.034,2.409-0.025,16.788-6.895,30.554 c-0.204,0.409-0.104,0.905,0.241,1.204l2.666,4.023c0.183,0.157,0.415,0.242,0.653,0.242c0.032,0,0.065-0.002,0.098-0.005 c0.272-0.026,0.522-0.164,0.69-0.38l2.101-2.691l2.817-1.036c0.299-0.109,0.527-0.355,0.616-0.661 c0.146-0.508,3.554-11.376,3.012-31.25c1.387-1.214,2.064-3.118,2.064-3.118c3.008,1.691,6.737,4.281,9.115,7.69 c0.171,0.245,0.443,0.4,0.741,0.425c0.3,0.023,0.591-0.088,0.798-0.303c0.255-0.263,6.232-6.549,6.286-15.2 C50.951,7.804,44.974,1.517,44.719,1.255z M26.895,10.396l0.724-1.447h1.879c0.435,0.578,1.2,1.603,1.2,1.603 c0.078,0.105,0.184,0.179,0.293,0.245c-0.411,0.936-1.25,1.956-2.184,3.054c-0.945-1.084-1.806-2.109-2.316-3.04 C26.657,10.715,26.803,10.578,26.895,10.396z M29.972,22.941L28,22.949c0,0-0.243-2.74,0.886-4.954 C29.791,19.405,30.201,21.052,29.972,22.941z M23.985,21.58l-6.725,2.229l-2.253-2.188V11.276l2.302-2.234l6.107,1.358 c0.152,1.112,0.865,3.116,3.658,5.563c-1.154,1.52-2.099,3.162-2.099,4.922c0,0.331,0.011,0.641,0.028,0.94 C24.744,21.567,24.355,21.46,23.985,21.58z M44.051,29.35c-2.863-3.572-6.943-6.187-9.986-7.798 c-0.25-0.132-0.545-0.152-0.809-0.057c-0.111,0.04-0.205,0.109-0.294,0.183c0.021-0.25,0.036-0.507,0.035-0.778 c-0.007-1.651-1.11-3.353-2.435-4.99c1.591-1.67,2.938-3.49,3.455-4.962l0.992-0.002c0.181,0,0.357-0.05,0.513-0.143 c0.197-0.118,4.591-2.783,8.489-7.306c1.536,1.916,4.955,6.86,4.993,12.944C48.968,22.485,45.604,27.4,44.051,29.35z"/></svg>